<svg xmlns="http://www.w3.org/2000/svg" xmlns:xlink="http://www.w3.org/1999/xlink" viewBox="0 0 369.57 167.53"><defs><style>.cls-1{isolation:isolate;}.cls-2{fill:#fff;}.cls-3{fill:#29abe2;}.cls-4{fill:#00cfff;opacity:0.3;}.cls-5{fill:none;stroke:#fff;stroke-miterlimit:10;stroke-width:3px;}.cls-6{opacity:0.3;fill:url(#radial-gradient);}.cls-6,.cls-8{mix-blend-mode:multiply;}.cls-7{fill:#0071bc;}.cls-8{fill:#707677;}</style><radialGradient id="radial-gradient" cx="83.92" cy="148.9" r="43.45" gradientTransform="translate(0 136.36) scale(1 0.08)" gradientUnits="userSpaceOnUse"><stop offset="0.18"/><stop offset="1" stop-opacity="0"/></radialGradient></defs><title>logo_svg</title><g class="cls-1"><g id="Capa_2" data-name="Capa 2"><g id="Capa_1-2" data-name="Capa 1"><path class="cls-2" d="M318.23,55.49a9.54,9.54,0,0,0-.32,3.43c0,1,.32,5,1.77,5a4.94,4.94,0,0,0,4.57-3.32l.11-.11v.32c0,.93-.84,1.66-1.15,2.49,1.15-.52,1.35-1.56,2-2.49a1.66,1.66,0,0,1,.2.52c0,.72-.62,1.14-.72,1.76l.72.11-.1.31.21.1v-.1h.31l-.1-.21h.1l.1-.42H326l.21-.41v.41a1.33,1.33,0,0,0,.41-1l.42-.51c-.21,3-3,5-5.92,5-6.34,0-10.08-4.36-10.08-10.49,0-5,2.08-10,5-14a11.18,11.18,0,0,1,9.45-5,13.53,13.53,0,0,1,2.8.41l-2.07-3.84.83-.21a9.61,9.61,0,0,1,7,9.35C334,50.09,325.08,55.49,318.23,55.49Zm-3.33-8.1c-.1,0-.1,0-.1.1h.1Zm.52-1.56-.31.52.21.1Zm.11-.21-.11.1h.11Zm1.66-2.81.31-.1a.39.39,0,0,0-.31.1l-.52.84-.21.31v.1a8.5,8.5,0,0,0-.73,1,1.24,1.24,0,0,0,.73-1l.21-.41.41-.32C317.08,43.13,317.19,43,317.19,42.81Zm-.31,7.8c-.11.1-.11.31-.11.52h.11Zm3.84-7.17c-1.45,1.45-3.43,4.36-3.43,6.54C318,47.7,319.78,45.72,320.72,43.44Zm-3.43,2.7v0Zm.42-.94c.1-.1.1-.2.1-.41A.8.8,0,0,0,317.71,45.2Zm.41-.62h.11a.78.78,0,0,0,.2-.41C318.33,44.27,318.23,44.58,318.12,44.58Zm1.15,6.75c3.74-.41,9.24-6.54,9.24-10.28v-.42C323.84,41.67,320.1,46.76,319.27,51.33Zm1.55-8,.42-.2V43l-.1.11C320.93,43.13,320.93,43.23,320.82,43.33Zm7.07,3a.58.58,0,0,0-.11.41l-.31.21.31-.1v-.11Zm.72-1.15-.2.42v.1A1.08,1.08,0,0,0,328.61,45.2Zm.32-.62a.22.22,0,0,0,.2-.21h-.2Zm.41,4.16c.11-.11.21-.11.21-.21Zm.21-2.39h.1l.11-.32Zm.42,2.07a.38.38,0,0,0-.32.11A.38.38,0,0,0,330,48.42Zm0-.1A8.92,8.92,0,0,0,332,44.58C331.63,45.31,330,47.7,330,48.32Z"/><path class="cls-2" d="M368.82,20.48c-2.39,2.91-11.64,3.74-15.38,4.36-3.74,12.16-5.92,24.73-8,37.3a133.29,133.29,0,0,0-1.87,20.25,35.62,35.62,0,0,0,1,8.11,2.16,2.16,0,0,1,.11.83c0,.93-1.35,1.24-2.08,1.24-.31,0-.42-.31-.52-.52l-.62.94c-1.25-.62-2.6-.94-3.85-1.56-3.84-2-3.84-9-3.84-12.67,0-10.91,1.45-22,3.12-32.83.41-2.49.62-5.09,1.14-7.58.52-2.91,1.25-5.82,1.66-8.73a15.33,15.33,0,0,0,.42-2.08c0-.52-.94-.52-1.25-.52-1,0-2.18.11-3.22.11l.1-.11a7.32,7.32,0,0,1-3.11-2.28l.1-.62-.93-.52c.2-1,.41-1.35,1.45-1.67,2.29-.62,4.68-.83,7-1.35a43.48,43.48,0,0,0,5.82-9.66,69,69,0,0,1,4.26-7.79c.41-.73.83-1.35,1.76-1.35l1.25.62-.73,1.67c.63-.63,1-1.25,1.56-1.87l.42.62.83-.1-.52,1.45.83-.73,1.14.42v1l.83-.21c.63.52,1.66,1,1.66,2,0,.42-3.74,11.12-3.74,11.12a16.11,16.11,0,0,0,2.29-.21,23.55,23.55,0,0,1,5.4-.41c2.18,0,2.7.41,4.05,2.18C367.36,20.17,368.19,20.38,368.82,20.48ZM336.72,68h-.11V69.3h.11Zm.41-4.36H337v1.25h.1Zm1.46-10.28-.31-.11-1,8.62h.21C337.76,59,338.17,56.11,338.59,53.31Zm5-26.81c-1.45,2.29-4.88,22-4.88,25.35v.52C340.15,43.75,341.39,35,343.57,26.5ZM338.9,72.32v-1h-.1v1Zm0-2.6h.1v-.21h-.1Zm.42-4.16h-.11l-.1,2h.1Zm.31-2.49h-.11c0,.52-.1.94-.1,1.46h.21Zm.2-1.76v.51c.94-6,1.77-12,2.91-18s2.5-11.94,3.74-18C344.61,28.27,339.83,57.05,339.83,61.31Zm10-35.84-.94.1c-2.59,8.52-4.15,17.45-5.61,26.18-1.35,8.93-2.8,18.07-2.8,27.11a36.41,36.41,0,0,0,.21,4.78A275.59,275.59,0,0,1,349.81,25.47ZM342,20.06v.21l.41-.62A.44.44,0,0,0,342,20.06Zm.62,53.09h-.1v.31h.1Zm.31-2.81v-.52a.83.83,0,0,0-.1.52Zm.42-3.42V66.6h-.11v.32Zm.31-2.81h-.11v.42h.11Zm.31-2.18h-.1v.41Zm.31-1.56a.63.63,0,0,1-.1-.41h-.11a.58.58,0,0,0,.11.41Zm.21-2.49h-.1v.72h.1Zm.31-1.77h-.1v.42h.1Zm.11-18.39V38h.1v-.32Zm.2,17.14V54H345v.83Zm.11-18.49a.88.88,0,0,1-.11.52h.11l.1-.52Zm.2,16.73v-.62h-.2v.62Zm0-17.56h.11v-.2Zm.32,15.9a.89.89,0,0,0-.11-.52h-.1v.52Zm0-17.46v.32h.1V34Zm.2,15.69v-.41h-.1v.41Zm.32-1.25V47.7h-.11l-.1.72Zm.1-16.72-.21.31h.21ZM346.28,18l.1-.11C346.28,17.88,346.28,17.88,346.28,18Zm.31,28.88a1.28,1.28,0,0,0-.11-.63h-.1v.63Zm-.11-16.11.11.11.2-.42Zm.31,13.92h-.1v.84h.1Zm.32-.62v-.73H347l-.1.63C347,44.06,347,44.06,347.11,44.06ZM347,29.21l.21-.52-.21-.11ZM347.31,42h-.1v.73h.1Zm0-14.33v.21c.11-.11.11-.11.11-.21Zm.32,13.61v-.63h-.11v.63Zm.31-1.87-.21.52.21.1Zm.41-1.25a.45.45,0,0,0-.41.42c0,.2.1.31.1.51Zm-.1-.62c0,.2.1.31.1.52l.31-1C348.46,37.1,348.25,37.2,348.25,37.52ZM348.56,19a5.39,5.39,0,0,0,1.14-3A5.43,5.43,0,0,0,348.56,19Zm.1,17.86c0-.31.11-.62.11-.93h-.21A3,3,0,0,0,348.66,36.89Zm.32-1.55v-.52a1,1,0,0,0-.21.52Zm.1-1.15a.4.4,0,0,0-.1.31l.1-.1Zm.21-.72.1-.32A.41.41,0,0,0,349.29,33.47Zm.31-1.25-.1.1c0,.31-.11.52-.11.83l.21-.83Zm.52-1.66a1.91,1.91,0,0,0-.52,1.66A9.63,9.63,0,0,0,350.12,30.56Zm-.31-14.75c-.11.1-.11.1-.11.2C349.7,15.91,349.81,15.91,349.81,15.81Zm.83,12.88a1.66,1.66,0,0,0-.52,1.14,1.35,1.35,0,0,0,.1.62A11.24,11.24,0,0,1,350.64,28.69Zm-.52,1.87h.1v-.11Zm.21-22.23c.1-.11.1-.11.1-.21C350.43,8.22,350.33,8.22,350.33,8.33Zm.31-.94-.21.52A.8.8,0,0,0,350.64,7.39Zm.21-.41-.21.41A.81.81,0,0,0,350.85,7Zm-.21,21.29.31-.73v-.41A4.4,4.4,0,0,0,350.64,28.27Zm.83-2.6v-.41l-.42,1.14A.68.68,0,0,0,351.47,25.67Zm3.74-16.1a14.41,14.41,0,0,1-1,1.35c-.52.94-2.91,6.86-2.91,7.69h.21c.52,0,.73-.42.83-.83C353.34,15.08,354.17,12.38,355.21,9.57Zm-3.32-4.05a.73.73,0,0,0-.21.42A.87.87,0,0,0,351.89,5.52Zm-.11,5,.31-.21h-.31Zm.62-6.13a5.71,5.71,0,0,0-.51,1.14l.51-.93Z"/><path class="cls-2" d="M244.49,111.7c2.49-3.22,6.44-9.24,11-9.24s9.76,5.5,9.76,10c0,8.41-6.65,18.18-12.57,23.68-1.76,1.67-3.42,3-5.92,3.43a14.62,14.62,0,0,1-2.18.21c-6.54,0-11.32-5.4-11.32-11.84v-1.25c0-4.26,4.36-15.79,9.35-15.79Zm-3.74,1.56a4.13,4.13,0,0,0-1.67,1.87Zm-.94,7.69v.2c.11,0,.11-.1.21-.2Zm19.43-9.77a14.92,14.92,0,0,0,.31-2.08,3.19,3.19,0,0,0-.31-1.35c-3.43,0-10.6,8.63-10.6,12a3.16,3.16,0,0,0,1.46,2.49,1.41,1.41,0,0,1-1,.63c-2.91,0-4.26-2.29-5.82-4.26-1.56,3.84-3,7.79-3,11.94a15.56,15.56,0,0,0,.52,4.37C250.2,132.27,257.58,120.43,259.24,111.18Zm-16,3.43a12.76,12.76,0,0,0-2.8,4.88,28.05,28.05,0,0,0,2.7-4.67Zm-2.39.93a2.73,2.73,0,0,0,.94-1.45Zm6.34-4.57c.31-.83,3.74-4.26,4.67-5.09h-.21a25.77,25.77,0,0,0-4.77,5.3Zm7.06-2.9V108h-.1c-.11,0-.11.11-.21.11-2.18,1.55-5.51,5.09-6,7.79A76.09,76.09,0,0,1,254.25,108.07Zm-3.95,1.55c-.41.42-1.76,1.77-1.76,2.18C249.06,111,249.78,110.35,250.3,109.62Zm3.12,22.55a3.33,3.33,0,0,0-.62,1c2.07-2.38,7.79-8.2,7.68-11.42A70.13,70.13,0,0,1,253.42,132.17Zm1.87-7.38c-.52.73-2.28,2.8-2.28,3.22A10.55,10.55,0,0,0,255.29,124.79Zm-1.87,5c0,.1,0,.1.1.1Zm1.25-1.15c.72-1.14,1.66-2.18,2.28-3.32l-2.39,3.22v.1Zm2.39-3.63a.37.37,0,0,0-.11.31Zm1.55,2.59h.11v-.1Z"/><path class="cls-2" d="M266.93,133.2a14.9,14.9,0,0,1-4.47,4.37l-3.64-1.25L259,136a34.09,34.09,0,0,0,4.47-5.71,75.57,75.57,0,0,0,10.39-26.81c-3.95-2.7-9.46-5.71-9.46-11.21,0-2.81,2.5-6.24,5.51-6.24a5.61,5.61,0,0,1,2.6.63A10,10,0,0,1,278.46,95c.21,2.28.52,4.57.62,6.85,3.53,2.08,7.38,4.16,10.39,7A7.28,7.28,0,0,1,292,114.4c0,3.12-2,8.31-3,11.43-1.87,5.5-5.19,14.13-5.19,19.84a10.72,10.72,0,0,0,.72,4.05l2.91.73-.1.83.1.1.52-.62h.83a2.75,2.75,0,0,1,.31,1.25c0,2-3.11,2.59-4.67,2.59-6.75,0-9.45-7.27-9.45-13,0-7,4.36-18.28,6.85-24.93.63-1.56,1.77-4.89,1.77-6.44,0-2.5-2.91-3.54-4.78-4.37C277.52,116.06,272.85,125,266.93,133.2Zm-.52-43.11.21.21a3.58,3.58,0,0,1,.41-1.14Zm.62,40.52-.1.1h.1Zm.73-5.4a2.35,2.35,0,0,0,.83-1.67Zm2-35a1.79,1.79,0,0,0-.62,1.24,1,1,0,0,0,.1.52C269.42,91.44,269.52,90.82,269.73,90.2ZM274,98c0-2-.52-6.44-1.66-7.9a4.78,4.78,0,0,0-1.66,3.54,7,7,0,0,0,3.22,5.71C273.89,98.92,274,98.4,274,98Zm2.39,11.53a126.13,126.13,0,0,1-5.51,14.85c2.19-2.38,5.41-12.05,5.82-15.37C276.48,109.1,276.48,109.31,276.38,109.52Zm-4.88,7.58a12,12,0,0,0,1.14-3l-.21.1Zm1.45-4.57a1.68,1.68,0,0,0-.31,1.35Zm.21-.52a.39.39,0,0,0,.1-.31Zm.21-.83a.61.61,0,0,1-.11.42.76.76,0,0,0,.21-.42Zm.31-1.24.31-.42h-.1Zm.52-1.25-.1-.21v.31Zm2.7-.83h-.1v.41h.1Zm.21-1.15H277V107h.11Zm6,12.57-5,15.17L277,138.61a39,39,0,0,0,2.19-6.13c1.76-5.51,3.74-10.91,5.29-16.52A9.49,9.49,0,0,0,283.13,119.28Zm-3.74,21.3c0-.21-.1-.31-.1-.52a1,1,0,0,0-.1.52ZM286,117.73l-5.09,15c-.73,2.28-1,4.77-1.56,7.06l.21-.21c.94-3.12,1.66-6.34,2.7-9.45,1.35-4.16,3.33-8.31,4.05-12.68Zm-4.26,22.64A118.41,118.41,0,0,1,286.46,125c1-3.12,2.39-6.34,2.7-9.66H289c-2.49,7-4.78,14.12-7,21.19a22,22,0,0,0-1,6.34,10.73,10.73,0,0,0,.11,1.87C281.37,143.28,281.47,141.83,281.78,140.37Zm-.21-4.88v-.1l-.1.1Zm1-3.74.11-.1h-.11Zm.21-.83.11.1v-.1Zm.11,10h-.11c0,.11,0,.11.11.21Zm.1-10.59.1.1v-.1Zm.1,9.55H283v.21h.1Zm.63-2.28h.1v-.31h-.1Zm.31-1.25H284v.31h.11Zm.41-10.18-.1.1h.1Zm0,8.83c-.1,0-.1.1-.1.21h.1Zm.11-19.63v.41a.63.63,0,0,0,.1-.41Zm.1,18.9-.1.11h.1Zm.11-.72.2.1a.39.39,0,0,0-.1-.31Zm.41-.94h-.1v.31h.1Zm.62-2h-.1c0,.1,0,.1.1.1Zm.21-8.94-.1.11h.1Zm0,8.31c-.1,0-.1,0-.1.11Zm.52-13.08h-.21v.31Zm-.1,11.84.1-.11h-.1Zm.2-.63c.11,0,.11-.1.11-.2h-.11Zm.21-.72H287v-.21h-.11Zm1.25-3.33H288v.21h.1Zm.1-.52h.11v-.1h-.11Zm.21-.83.11.11v-.11Zm1.46-4v-.1l-.11.1Z"/><path class="cls-2" d="M328.22,92.07c-2.39,2.91-11.64,3.74-15.38,4.36-3.74,12.15-5.92,24.72-8,37.29A132.27,132.27,0,0,0,303,154a35.45,35.45,0,0,0,1,8.1,2.19,2.19,0,0,1,.11.83c0,.94-1.35,1.25-2.08,1.25-.31,0-.42-.31-.52-.52l-.62.94c-1.25-.63-2.6-.94-3.85-1.56-3.84-2-3.84-9-3.84-12.67,0-10.91,1.45-22,3.12-32.83.41-2.49.62-5.09,1.14-7.58.52-2.91,1.25-5.82,1.66-8.73a13.94,13.94,0,0,0,.42-2.08c0-.52-.94-.52-1.25-.52-1,0-2.18.11-3.22.11l.1-.11a7.44,7.44,0,0,1-3.11-2.28l.1-.63-.93-.52c.2-1,.41-1.35,1.45-1.66,2.29-.62,4.68-.83,7-1.35a43.48,43.48,0,0,0,5.82-9.66,69,69,0,0,1,4.26-7.79c.41-.73.83-1.35,1.76-1.35l1.25.62L312,75.65a21.76,21.76,0,0,0,1.56-1.87l.42.63.83-.11-.52,1.46.83-.73,1.14.42v1l.83-.2c.63.52,1.67,1,1.67,2,0,.42-3.74,11.12-3.74,11.12a17.73,17.73,0,0,0,2.28-.21,23,23,0,0,1,5.4-.42c2.18,0,2.7.42,4.05,2.18C326.76,91.76,327.6,92,328.22,92.07Zm-32.1,47.47H296v1.35h.1Zm.41-4.36h-.1v1.24h.1ZM298,124.89l-.31-.1-1,8.62h.21C297.16,130.61,297.57,127.7,298,124.89Zm5-26.8c-1.46,2.29-4.89,22-4.89,25.35V124C299.55,115.34,300.79,106.61,303,98.09ZM298.3,143.9v-1h-.1v1Zm0-2.59h.1v-.21h-.1Zm.42-4.16h-.11l-.1,2h.1Zm.31-2.49h-.11c0,.52-.1.93-.1,1.45H299Zm.21-1.77v.52c.93-6,1.76-12,2.9-18s2.5-12,3.74-18C304,99.86,299.24,128.63,299.24,132.89Zm10-35.84-.94.11c-2.59,8.52-4.15,17.45-5.61,26.18-1.35,8.93-2.8,18.07-2.8,27.11a36.41,36.41,0,0,0,.21,4.78A275.58,275.58,0,0,1,309.21,97.05Zm-7.79-5.4v.21l.41-.62A.43.43,0,0,0,301.42,91.65Zm.62,53.09h-.1v.31h.1Zm.31-2.81v-.52a.81.81,0,0,0-.1.52Zm.42-3.43v-.31h-.11v.31Zm.31-2.8H303v.41h.1Zm.31-2.18h-.1v.41Zm.31-1.56a.66.66,0,0,1-.1-.42h-.11a.61.61,0,0,0,.11.42Zm.21-2.5h-.1v.73h.1Zm.31-1.76h-.1v.41h.1Zm.11-18.39v.31h.1v-.31Zm.2,17.14v-.83h-.1v.83Zm.11-18.49a.89.89,0,0,1-.11.52h.11l.1-.52Zm.21,16.73v-.63h-.21v.63Zm0-17.56h.1v-.21Zm.31,15.89a.91.91,0,0,0-.11-.52H305V123Zm0-17.45v.31h.1v-.31Zm.2,15.69v-.42h-.1v.42Zm.32-1.25v-.73h-.11l-.1.73Zm.1-16.72-.21.31h.21Zm-.1-13.72.1-.1C305.68,89.47,305.68,89.47,305.68,89.57Zm.31,28.88a1.26,1.26,0,0,0-.11-.62h-.1v.62Zm-.11-16.1.11.11.21-.42Zm.32,13.92h-.11v.83h.11Zm.31-.62v-.73h-.11l-.1.62C306.4,115.65,306.4,115.65,306.51,115.65Zm-.11-14.86.21-.52-.21-.1Zm.32,12.78h-.11v.73h.11Zm0-14.34v.21c.1-.1.1-.1.1-.21Zm.31,13.61v-.62h-.11v.62Zm.31-1.87-.21.52.21.11Zm.41-1.24a.45.45,0,0,0-.41.41c0,.21.1.31.1.52Zm-.1-.63c0,.21.1.32.1.52l.32-1C307.86,108.69,307.65,108.79,307.65,109.1ZM308,90.61a5.33,5.33,0,0,0,1.14-3A5.4,5.4,0,0,0,308,90.61Zm.11,17.87c0-.31.1-.62.1-.93H308A2.7,2.7,0,0,0,308.07,108.48Zm.31-1.56v-.52c-.11.21-.21.31-.21.52Zm.1-1.14a.39.39,0,0,0-.1.31l.1-.1Zm.21-.73.1-.31A.39.39,0,0,0,308.69,105.05Zm.31-1.24-.1.1c0,.31-.11.52-.11.83l.21-.83Zm.52-1.67a1.93,1.93,0,0,0-.52,1.67A9.73,9.73,0,0,0,309.52,102.14Zm-.31-14.75c-.11.11-.11.11-.11.21C309.1,87.5,309.21,87.5,309.21,87.39Zm.83,12.88a1.7,1.7,0,0,0-.52,1.15,1.37,1.37,0,0,0,.1.62A11.63,11.63,0,0,1,310,100.27Zm-.52,1.87h.1V102Zm.21-22.23c.1-.1.1-.1.1-.2C309.83,79.81,309.73,79.81,309.73,79.91ZM310,79l-.21.52A.77.77,0,0,0,310,79Zm.21-.42L310,79A.83.83,0,0,0,310.25,78.56ZM310,99.86l.31-.73v-.41A4.3,4.3,0,0,0,310,99.86Zm.83-2.6v-.41L310.45,98A.7.7,0,0,0,310.87,97.26Zm3.74-16.1a15.85,15.85,0,0,1-1,1.35c-.52.93-2.91,6.86-2.91,7.69h.21c.52,0,.73-.42.83-.83C312.74,86.67,313.57,84,314.61,81.16Zm-3.32-4a.74.74,0,0,0-.21.41A.81.81,0,0,0,311.29,77.11Zm-.11,5,.31-.2h-.31Zm.63-6.12a5,5,0,0,0-.52,1.14l.52-.94Z"/><path class="cls-2" d="M344,126.14c-2.29,5.4-7.38,14.65-11.95,18.28-2.28-.83-3.94-1-3.94-3.94,0-5.61,1.24-11.12,2.39-16.62L327,127.49c-2.18,2.29-5.19,6.65-8.83,6.65-2.59,0-6.44-2.39-6.44-5.3,0-6.13,6.55-17.24,11.53-20.77,2.08-1.46,4.68-2.91,7.28-2.91s4.77,1.45,6.64,3.22a1.26,1.26,0,0,1,.42.83,1.39,1.39,0,0,1-.21.62l-3-.83c-7.48,2.6-11.22,11-14.23,17.76l.2.21,1.67-1.24,10-8.94c1.87-1.66,2.18-3.84,4.57-4.78l.1,1-.31.11c-.21.41,0,.31-.41.72l.31-.1.1-.52.31-.21a.71.71,0,0,1,.63-.41.86.86,0,0,1,.52.31l-.11.72.42-.2v-.11l.52.21c-.83,2.6-1.77,5.09-2.7,7.58l-.11.11c.11,0,.11,0,.11-.11s.31-.2.31-.41c1-2.29,1.87-4.68,3-6.86.52.11.94.42.94.94a7.14,7.14,0,0,1-.52,2.08c-1.35,3.73-5.92,16.62-5.92,19.94a17.64,17.64,0,0,0,3.42-3.43h.21c-1.35,2-3.22,3.64-4.15,5.82h-.11v.1c.11,0,.11,0,.11-.1A75.79,75.79,0,0,0,338.4,133a21.88,21.88,0,0,1,1.35-1.87l.52-.52c-2.18,3.74-5.61,7.17-7.48,11l3.32-3.84-.93,1.76.73-.52.1.42a6.21,6.21,0,0,1,.94-1.66h.1v-.11l-.1.11h-.21c.31-.84.41-1.36,1.14-1.87v.41l.21-.41.31-.21.21-.42c.21-.83,1-1.45,1.35-2.28a12.81,12.81,0,0,1,.93-1.56h-.1L341,131h-.11l.63-1.14.1.42a5.4,5.4,0,0,1,.62-1.35h-.1l.31-.21a3.88,3.88,0,0,0,.42-.94v.11A15.11,15.11,0,0,1,344,126.14Zm-28.88-3.32c0,.1-.1.2-.1.31h.1Zm.62-1.25c1.35-2.29,2.6-4.78,4.06-7,.31-.42,1.24-1.56,1.24-2.08l-.21.42c-1.45,1.45-4.67,7.06-5.4,9a.8.8,0,0,0-.21.51l.21-.51C315.55,121.88,315.75,121.78,315.75,121.57Zm1,2.08.31-.73c-.2.1-.2.52-.41.73Zm.21,4.88a.64.64,0,0,0-.1.42h.1Zm8.62-15.79c-2.7,1.66-6.65,9-7.68,12.05-.42,1.14-.63,2.39-.94,3.53a1.69,1.69,0,0,0,.42-.73A53.18,53.18,0,0,1,325.62,112.74Zm-8.2,9.25c1-2,2.28-3.74,3.42-5.61v-.21A29.07,29.07,0,0,0,317.42,122Zm3.94-9.77.32-.21h-.11Zm.52,2.49h.21v-.1C322,114.71,322,114.71,321.88,114.71Zm.52-.72h.11v-.11C322.4,113.88,322.4,113.88,322.4,114Zm10.39,18.49h.1v-.21h-.1Zm.42,9.76a.23.23,0,0,0-.21.21Zm0-11.84.1.21v-.31Zm.83,10.8-.73.94C333.62,141.83,334,141.72,334,141.2Zm-.31-12.57h.1v-.52A1,1,0,0,0,333.73,128.63Zm.1-.93.21-.42h-.11Zm.21-.52a3.81,3.81,0,0,0,.72-2.08A15.55,15.55,0,0,0,334,127.18Zm.2,14.34c-.1,0-.1.1-.2.1C334.14,141.62,334.24,141.62,334.24,141.52Zm.42-.73c0-.21.1-.42.1-.63l-.62.94Zm0-24.73.83-1.55A3.67,3.67,0,0,0,334.66,116.06Zm.21,24.52-.11.1C334.87,140.68,334.87,140.68,334.87,140.58Zm.1-16.31a.39.39,0,0,0-.1.31Zm.31,16.21c-.1,0-.1.1-.2.1h.2Zm0-17.25a.81.81,0,0,0-.1.52l.1-.21Zm.73,16.31h-.1l-.31.21h.1Zm.31-23.68a.93.93,0,0,1,.11.31l.41-.83C336.53,115.44,336.32,115.54,336.32,115.86Zm.52-.63a.88.88,0,0,0,.11-.52A.91.91,0,0,0,336.84,115.23Zm1,21.19a.67.67,0,0,0-.1.42A.64.64,0,0,0,337.88,136.42Z"/><path class="cls-2" d="M363.23,64.75c3,0,6.34,4.78,6.34,7.68,0,4.26-4.78,18.7-6.24,23.58-.83,2.81-1.87,5.61-2.7,8.42l-5.61,20a77.35,77.35,0,0,0-3.32,20.57,22.57,22.57,0,0,0,.93,5.81,24.53,24.53,0,0,1,.94,3.85c-.31,0-.62.1-.94.1-2.8,0-5.09-2-6.64-4.15-1.87-2.6-2.08-6-2.08-9.14,0-12.89,6.85-37.3,10.91-50.08,1.24-3.84,8.41-21.91,8.41-24a3.82,3.82,0,0,0-.73-2.08A.9.9,0,0,1,363.23,64.75Zm-13.09,71.67c.52-3.22,1-6.33,1.87-9.55,1.25-5,2.39-10,3.74-15,2-7,4.47-13.82,6.13-20.88-1.35,2.08-6.65,21.61-7.79,25.55a121.9,121.9,0,0,0-4.47,22A15.8,15.8,0,0,0,350.14,136.42Zm12.57-47.68a1.24,1.24,0,0,0-.52,1.15Zm.31-.93-.21-.11a3.71,3.71,0,0,0-.1,1Zm.52-1.77-.1-.1V86Z"/><path class="cls-2" d="M224.68,140.44c0,6,1,12.18,1.4,18.16-11.18-3.19-15-14.16-15-24.74,0-23.15,3.59-46.09,8.78-68.64,2.8-12.17,5.79-25.14,11.18-36.32a6.09,6.09,0,0,0,1-2.39,1.81,1.81,0,0,0-.59-1.4l.79-1.2a7.79,7.79,0,0,1-1.59-2c.8-2.2,3-1.8,4.79-1.8,4.59,3,8.38,9.38,8.38,15,0,6-7.39,34.12-9.58,40.9h1a12.58,12.58,0,0,0,5.38-1.19,167.12,167.12,0,0,0,38.72-20.36c5-3.39,16-11.57,18.15-17a14.73,14.73,0,0,0,1-5c0-4-2.19-6.78-5.19-9.17-9.57-7.39-24.14-10-36.11-10-18.16,0-37.32,5.19-51.88,16-6.59,4.79-14.17,12.37-14.17,21.15a15.14,15.14,0,0,0,.2,3c4.19,3.19,9.18,4.78,14.17,5.78,1,2.6,1.59,5.19,4.19,6.79a13.57,13.57,0,0,1-4,.4c-8.38,0-15.17-3.2-19.36-10.58a28.62,28.62,0,0,1-4.19-14c0-6.38,3.19-12.17,7.58-16.76,16-16.76,38.31-23.35,60.86-23.35,24.54,0,50.49,7.19,55.67,34.72a24.5,24.5,0,0,1,.4,3.8c0,16.76-25.54,33.12-38.71,40.1C259.4,85,249.82,89.16,240.25,91a81.24,81.24,0,0,1-9.78,1C227.08,107.72,224.68,124.28,224.68,140.44Zm-.6-125.9c-5.58,2.19-11.57,4.19-16.56,7.58-2.79,2-5.19,4.39-8,6.58a3.22,3.22,0,0,0,1.4-.8c6.38-4.58,13.17-8,20.35-11.37a33.82,33.82,0,0,0,3.59-2Zm-20,2.79c-.6,0-1.2,0-1.2.8a2,2,0,0,1,.2.6Zm8.18-.6c-.2,0-.2,0-.4.2C212.11,16.93,212.11,16.73,212.31,16.73Zm2.39-1.2.6-.2-.6-.4Zm0,5.79h.2v-.4Zm6.59-12v-.2c-.2,0-.2,0-.4.2Zm1.6-.6h-.2c0,.2,0,.2.2.2Zm6.78,4.79v-.6l-.8.6ZM241,86.37c-.2-.2-.2-.2-.4-.2v.2Zm1.4-.8V86l.8-.4Zm2.4-8.18-.2.2c.2,0,.39,0,.39-.2ZM256.41,80c-2.6,1.2-9.18,3.4-11,5.19,2.8-1,5.59-1.59,8.19-2.79a129,129,0,0,0,34.91-21.55,3.59,3.59,0,0,0,1.4-1,8,8,0,0,0-2.19,1.4A160.76,160.76,0,0,1,256.41,80Zm-10.18-2.79c0-.4,0-.4-.4-.4Zm3.39-1.4c1.2-.79,4.59-2.39,5.59-2.39,5-2.59,10.18-5,14.77-8.38a58.11,58.11,0,0,0-9.18,5,50.11,50.11,0,0,1-10.38,5Zm6.79.8c3.39-1.2,14-6.38,16.36-8.78-1.8.8-3.19,2.2-5,3ZM263,80.38l.2.2v-.2Zm9.18-5.18-.2.39h.2Zm2.2-1.2v.2l.2-.2ZM276,72.8l-.2.2h.2Z"/><rect class="cls-3" x="1.5" y="1.5" width="164.15" height="164.53" rx="16.1" ry="16.1"/><path class="cls-4" d="M149.56,166H17.6a16.06,16.06,0,0,1-12.41-5.84C2.89,157.41,156.92,2.84,159.68,5.09a16,16,0,0,1,6,12.51V149.93A16.09,16.09,0,0,1,149.56,166Z"/><rect class="cls-5" x="1.5" y="1.5" width="164.15" height="164.53" rx="16.1" ry="16.1"/><path class="cls-6" d="M130.31,148.9c0,2.48-20.77,4.49-46.39,4.49s-46.4-2-46.4-4.49,20.77-4.49,46.4-4.49S130.31,146.42,130.31,148.9Z"/><path class="cls-7" d="M136.65,69.18a52.74,52.74,0,1,0-105.47,0c0,33.49,52.74,75,52.74,75S136.65,102.67,136.65,69.18Z"/><path class="cls-8" d="M123.09,33.87A52.74,52.74,0,0,0,31.18,69.18c0,14.55,10,30.62,21.22,44.14a239.41,239.41,0,0,0,31.52,30.87s52.73-41.52,52.73-75A52.55,52.55,0,0,0,123.09,33.87Zm-39.17,105a237.27,237.27,0,0,1-28.34-28.17l-.39-.48c-13-15.72-19.87-29.9-19.87-41A48.59,48.59,0,0,1,120,36.65l.29.34a48.49,48.49,0,0,1,12.21,32.19c0,12.63-8.72,28.95-25.22,47.2A247.17,247.17,0,0,1,83.92,138.84Z"/><path class="cls-2" d="M81.62,98.45a4.06,4.06,0,0,0,5.28,0c1.78-1.53,4.76-4.25,9.71-9,11.64-11.27,10.91-16.11,11-16.64A13,13,0,0,0,95,58.43a13.5,13.5,0,0,0-10.71,5.5,13.5,13.5,0,0,0-10.71-5.5A13,13,0,0,0,61,72.76c0,.53-.67,5.37,11,16.64C76.86,94.2,79.84,96.92,81.62,98.45Z"/><path class="cls-2" d="M62.64,51.77c2.34,4.42,1.45,9.49-2,11.33s-8.15-.27-10.5-4.69-1.45-9.49,2-11.32S60.29,47.35,62.64,51.77Z"/><path class="cls-2" d="M81,42.46c1,6.23-2.19,11.9-7,12.65s-9.59-3.68-10.56-9.91,2.19-11.9,7-12.66S80.05,36.23,81,42.46Z"/><path class="cls-2" d="M87.5,42.46c1-6.23,5.7-10.67,10.56-9.92s8,6.43,7.06,12.66-5.7,10.67-10.57,9.91S86.53,48.69,87.5,42.46Z"/><path class="cls-2" d="M118.38,58.41c-2.35,4.42-7,6.52-10.5,4.68s-4.34-6.89-2-11.31,7-6.52,10.49-4.69S120.73,54,118.38,58.41Z"/></g></g></g></svg>