<svg xmlns="http://www.w3.org/2000/svg" xmlns:xlink="http://www.w3.org/1999/xlink" viewBox="0 0 341.57 167.53"><defs><style>.cls-1{isolation:isolate;}.cls-2{fill:#fff;}.cls-3{fill:#29abe2;}.cls-4{fill:#00cfff;opacity:0.3;}.cls-5{fill:none;stroke:#fff;stroke-miterlimit:10;stroke-width:3px;}.cls-6{opacity:0.3;fill:url(#radial-gradient);}.cls-6,.cls-8{mix-blend-mode:multiply;}.cls-7{fill:#0071bc;}.cls-8{fill:#707677;}</style><radialGradient id="radial-gradient" cx="83.92" cy="148.9" r="43.45" gradientTransform="translate(0 136.36) scale(1 0.08)" gradientUnits="userSpaceOnUse"><stop offset="0.18"/><stop offset="1" stop-opacity="0"/></radialGradient></defs><title>logo_landing</title><g class="cls-1"><g id="Capa_2" data-name="Capa 2"><g id="Capa_1-2" data-name="Capa 1"><path class="cls-2" d="M299.53,59.54a7.9,7.9,0,0,0-.25,2.81c0,.85.25,4.08,1.44,4.08a4,4,0,0,0,3.74-2.72l.09-.09v.26c0,.77-.68,1.36-.94,2,.94-.42,1.11-1.27,1.62-2a1.28,1.28,0,0,1,.17.43c0,.59-.51.93-.59,1.44l.59.09-.08.25.17.09v-.09h.25l-.08-.17h.08l.09-.34h.08l.17-.34v.34a1.07,1.07,0,0,0,.34-.85l.34-.42a4.67,4.67,0,0,1-4.85,4.08c-5.18,0-8.25-3.57-8.25-8.59a20.17,20.17,0,0,1,4.09-11.48,9.15,9.15,0,0,1,7.74-4.09,10.66,10.66,0,0,1,2.29.34l-1.7-3.14.68-.17a7.86,7.86,0,0,1,5.7,7.65C312.46,55.12,305.15,59.54,299.53,59.54Zm-2.72-6.63c-.08,0-.08,0-.08.08h.08Zm.43-1.28-.26.43.17.08Zm.08-.17-.08.09h.08Zm1.36-2.29.26-.09a.31.31,0,0,0-.26.09l-.42.68-.17.25v.09a6.94,6.94,0,0,0-.6.85c.43-.17.51-.51.6-.85l.17-.34.34-.26C298.6,49.42,298.68,49.34,298.68,49.17Zm-.25,6.37a.63.63,0,0,0-.09.43h.09Zm3.14-5.86c-1.19,1.19-2.8,3.57-2.8,5.35C299.36,53.16,300.81,51.55,301.57,49.68Zm-2.8,2.21v0Zm.34-.77c.08-.08.08-.17.08-.34A.69.69,0,0,0,299.11,51.12Zm.34-.51h.08a.58.58,0,0,0,.17-.34C299.62,50.36,299.53,50.61,299.45,50.61Zm.93,5.53c3.06-.34,7.57-5.36,7.57-8.42v-.34C304.12,48.23,301.06,52.4,300.38,56.14Zm1.28-6.55.34-.17v-.08l-.09.08C301.74,49.42,301.74,49.51,301.66,49.59Zm5.78,2.47a.52.52,0,0,0-.08.34l-.26.17.26-.09V52.4Zm.6-.94-.17.34v.09C308,51.38,308,51.29,308,51.12Zm.25-.51a.18.18,0,0,0,.17-.17h-.17Zm.34,3.4c.09-.08.17-.08.17-.17Zm.17-1.95h.09l.08-.26Zm.34,1.7a.31.31,0,0,0-.25.08A.31.31,0,0,0,309.14,53.76Zm0-.09a7.25,7.25,0,0,0,1.7-3.06C310.5,51.21,309.14,53.16,309.14,53.67Z"/><path class="cls-2" d="M341,30.88c-1.95,2.38-9.52,3.06-12.59,3.57-3.06,9.95-4.84,20.24-6.54,30.54a108.29,108.29,0,0,0-1.53,16.58,28.89,28.89,0,0,0,.85,6.63,2,2,0,0,1,.08.69c0,.76-1.11,1-1.7,1-.26,0-.34-.26-.43-.43l-.51.77c-1-.51-2.12-.77-3.14-1.28-3.15-1.62-3.15-7.4-3.15-10.38a178.49,178.49,0,0,1,2.55-26.87c.34-2,.51-4.17.94-6.21.42-2.38,1-4.76,1.36-7.15a12.47,12.47,0,0,0,.34-1.7c0-.42-.77-.42-1-.42-.85,0-1.79.08-2.64.08l.09-.08a6.09,6.09,0,0,1-2.55-1.87l.08-.51-.77-.43c.17-.85.34-1.1,1.19-1.36,1.88-.51,3.83-.68,5.7-1.11a34.92,34.92,0,0,0,4.77-7.91,56.77,56.77,0,0,1,3.48-6.37c.34-.6.68-1.11,1.45-1.11l1,.51-.59,1.36c.5-.51.85-1,1.27-1.53l.34.51.68-.08-.42,1.19.68-.6.93.34v.85l.68-.17c.51.43,1.36.85,1.36,1.62,0,.34-3.06,9.1-3.06,9.1A14.6,14.6,0,0,0,332,28.5a19,19,0,0,1,4.42-.34c1.79,0,2.22.34,3.32,1.78C339.76,30.62,340.44,30.79,341,30.88ZM314.67,69.75h-.08v1.1h.08Zm.34-3.57h-.08v1H315Zm1.19-8.42-.25-.09-.85,7.06h.17C315.52,62.43,315.86,60.05,316.2,57.76Zm4.09-21.95c-1.2,1.87-4,18-4,20.76V57C317.48,49.93,318.5,42.79,320.29,35.81Zm-3.83,37.51v-.85h-.09v.85Zm0-2.13h.08V71h-.08Zm.34-3.4h-.09l-.08,1.62h.08Zm.25-2H317c0,.43-.09.77-.09,1.19h.17Zm.17-1.44v.42c.77-4.93,1.45-9.87,2.39-14.71s2-9.79,3.06-14.72C321.14,37.26,317.22,60.82,317.22,64.31ZM325.39,35l-.77.09A169.6,169.6,0,0,0,320,56.48c-1.11,7.31-2.3,14.8-2.3,22.2a30.09,30.09,0,0,0,.17,3.91A226.14,226.14,0,0,1,325.39,35ZM319,30.54v.17l.34-.51A.37.37,0,0,0,319,30.54ZM319.52,74h-.08v.26h.08Zm.26-2.3v-.42c-.09.08-.09.25-.09.42Zm.33-2.8v-.26H320v.26Zm.26-2.3h-.08v.34h.08Zm.26-1.78h-.09v.34Zm.25-1.28a.55.55,0,0,1-.08-.34h-.09a.5.5,0,0,0,.09.34Zm.17-2H321v.59h.08Zm.26-1.45h-.09v.34h.09Zm.08-15v.25h.09V45Zm.17,14v-.68h-.08V59Zm.09-15.14a.75.75,0,0,1-.09.43h.09l.08-.43Zm.17,13.7v-.51h-.17v.51Zm0-14.38h.08V43Zm.25,13a.83.83,0,0,0-.08-.43h-.09v.43Zm0-14.29v.25h.09v-.25Zm.17,12.84v-.34h-.08v.34Zm.26-1v-.6h-.09l-.08.6Zm.08-13.69-.17.25h.17Zm-.08-11.23.08-.09C322.5,28.75,322.5,28.75,322.5,28.84Zm.25,23.64a1.14,1.14,0,0,0-.08-.51h-.09v.51Zm-.08-13.18.08.08.17-.34Zm.25,11.4h-.08v.68h.08Zm.26-.51v-.6h-.09l-.08.51C323.09,50.19,323.09,50.19,323.18,50.19ZM323.09,38l.17-.42-.17-.09Zm.26,10.47h-.09v.59h.09Zm0-11.74v.17c.08-.09.08-.09.08-.17Zm.25,11.14v-.51h-.08v.51Zm.26-1.53-.17.42.17.09Zm.34-1a.37.37,0,0,0-.34.34c0,.17.08.25.08.42Zm-.09-.51c0,.17.09.25.09.42l.25-.85C324.28,44.49,324.11,44.57,324.11,44.83Zm.26-15.14a4.42,4.42,0,0,0,.93-2.47A4.42,4.42,0,0,0,324.37,29.69Zm.08,14.63c0-.26.09-.51.09-.77h-.17A2.53,2.53,0,0,0,324.45,44.32Zm.26-1.28v-.42c-.09.17-.17.25-.17.42Zm.08-.93a.31.31,0,0,0-.08.25l.08-.08Zm.17-.6.09-.25A.29.29,0,0,0,325,41.51Zm.26-1-.09.09c0,.25-.08.42-.08.68l.17-.68Zm.42-1.36a1.58,1.58,0,0,0-.42,1.36A7.61,7.61,0,0,0,325.64,39.13Zm-.25-12.08c-.09.09-.09.09-.09.17C325.3,27.14,325.39,27.14,325.39,27.05Zm.68,10.55a1.33,1.33,0,0,0-.43.93,1,1,0,0,0,.09.51A8.35,8.35,0,0,1,326.07,37.6Zm-.43,1.53h.09V39Zm.17-18.2c.09-.09.09-.09.09-.17C325.9,20.84,325.81,20.84,325.81,20.93Zm.26-.77-.17.43A.7.7,0,0,0,326.07,20.16Zm.17-.34-.17.34A.65.65,0,0,0,326.24,19.82Zm-.17,17.44.25-.6v-.34A3.64,3.64,0,0,0,326.07,37.26Zm.68-2.13v-.34l-.34.94A.58.58,0,0,0,326.75,35.13ZM329.81,22a11.34,11.34,0,0,1-.85,1.1,41.91,41.91,0,0,0-2.38,6.3h.17c.42,0,.59-.34.68-.68C328.28,26.46,329,24.25,329.81,22Zm-2.72-3.32a.64.64,0,0,0-.17.34A.65.65,0,0,0,327.09,18.63ZM327,22.71l.26-.17H327Zm.51-5a4.24,4.24,0,0,0-.42.93l.42-.76Z"/><path class="cls-2" d="M239.16,105.57c2-2.64,5.27-7.57,9-7.57s8,4.5,8,8.16c0,6.89-5.44,14.89-10.29,19.39a9.11,9.11,0,0,1-4.85,2.81,12,12,0,0,1-1.79.17,9.39,9.39,0,0,1-9.27-9.7v-1c0-3.48,3.57-12.92,7.66-12.92Zm-3.06,1.27a3.35,3.35,0,0,0-1.36,1.53Zm-.77,6.3v.17c.09,0,.09-.09.17-.17Zm15.91-8a12.23,12.23,0,0,0,.25-1.7,2.83,2.83,0,0,0-.25-1.11c-2.81,0-8.68,7.06-8.68,9.79a2.59,2.59,0,0,0,1.19,2,1.14,1.14,0,0,1-.85.51c-2.38,0-3.49-1.87-4.76-3.49-1.28,3.15-2.47,6.38-2.47,9.78a12.83,12.83,0,0,0,.43,3.57C243.84,122.41,249.87,112.71,251.24,105.14ZM238.14,108a10.35,10.35,0,0,0-2.3,4,21.89,21.89,0,0,0,2.21-3.83Zm-2,.76a2.23,2.23,0,0,0,.77-1.19Zm5.19-3.74a27.91,27.91,0,0,1,3.83-4.17H245a21.49,21.49,0,0,0-3.92,4.34Zm5.78-2.38v-.09h-.08c-.09,0-.09.09-.17.09-1.79,1.28-4.51,4.17-4.94,6.38A65.62,65.62,0,0,1,247.15,102.59Zm-3.23,1.28c-.34.34-1.44,1.44-1.44,1.78C242.9,105,243.5,104.46,243.92,103.87Zm2.55,18.45a3,3,0,0,0-.51.85c1.7-2,6.38-6.72,6.3-9.35A57.64,57.64,0,0,1,246.47,122.32Zm1.53-6a18,18,0,0,0-1.87,2.64A8.61,8.61,0,0,0,248,116.28Zm-1.53,4.09c0,.08,0,.08.09.08Zm1-.94c.6-.94,1.36-1.79,1.87-2.72l-2,2.64v.08Zm2-3a.31.31,0,0,0-.09.26Zm1.28,2.13h.08v-.09Z"/><path class="cls-2" d="M257.53,123.17a12.22,12.22,0,0,1-3.66,3.57l-3-1,.17-.25a28.5,28.5,0,0,0,3.66-4.68,61.83,61.83,0,0,0,8.5-21.94c-3.23-2.21-7.74-4.68-7.74-9.19,0-2.29,2-5.1,4.51-5.1a4.6,4.6,0,0,1,2.12.51,8.21,8.21,0,0,1,4.85,6.8c.17,1.87.43,3.75.51,5.62,2.89,1.7,6,3.4,8.51,5.7a5.94,5.94,0,0,1,2,4.59c0,2.55-1.62,6.8-2.47,9.35-1.53,4.51-4.25,11.57-4.25,16.25a9,9,0,0,0,.59,3.32l2.39.59-.09.68.09.09.42-.51h.68a2.27,2.27,0,0,1,.26,1c0,1.61-2.55,2.12-3.83,2.12-5.53,0-7.74-5.95-7.74-10.63,0-5.7,3.57-15,5.61-20.41a20.45,20.45,0,0,0,1.45-5.27c0-2-2.38-2.9-3.91-3.58C266.21,109.14,262.38,116.45,257.53,123.17Zm-.42-35.29.17.17a3,3,0,0,1,.34-.94Zm.51,33.17-.09.08h.09Zm.59-4.43a1.87,1.87,0,0,0,.68-1.36ZM259.83,88a1.48,1.48,0,0,0-.51,1,.83.83,0,0,0,.08.43C259.57,89,259.66,88.47,259.83,88Zm3.49,6.38c0-1.62-.43-5.27-1.37-6.46a3.88,3.88,0,0,0-1.36,2.89,5.71,5.71,0,0,0,2.64,4.68C263.23,95.11,263.32,94.68,263.32,94.34Zm1.95,9.44a102,102,0,0,1-4.51,12.16c1.79-2,4.43-9.86,4.77-12.58C265.36,103.44,265.36,103.61,265.27,103.78Zm-4,6.21a9.62,9.62,0,0,0,.94-2.47l-.17.09Zm1.19-3.74a1.34,1.34,0,0,0-.25,1.1Zm.17-.43a.29.29,0,0,0,.09-.25Zm.17-.68a.52.52,0,0,1-.08.34.65.65,0,0,0,.17-.34Zm.26-1,.26-.34h-.09Zm.43-1-.09-.17v.26Zm2.21-.68h-.09v.34h.09Zm.17-.94h-.09v.26h.09Zm4.93,10.3-4.08,12.41-.94,3.41a31.76,31.76,0,0,0,1.79-5c1.44-4.51,3.06-8.93,4.33-13.53A7.88,7.88,0,0,0,270.8,111.78Zm-3.06,17.43c0-.17-.09-.25-.09-.42a.79.79,0,0,0-.08.42Zm5.44-18.71L269,122.75c-.59,1.87-.85,3.91-1.27,5.78l.17-.17c.76-2.55,1.36-5.19,2.21-7.74,1.11-3.4,2.72-6.8,3.32-10.38ZM269.69,129a98.32,98.32,0,0,1,3.83-12.59c.85-2.55,2-5.18,2.21-7.91h-.17c-2,5.7-3.91,11.57-5.7,17.35a18,18,0,0,0-.85,5.19,8.73,8.73,0,0,0,.09,1.53C269.35,131.42,269.44,130.23,269.69,129Zm-.17-4V125l-.08.08Zm.85-3.06.09-.08h-.09Zm.17-.68.09.09v-.09Zm.09,8.17h-.09c0,.08,0,.08.09.17Zm.08-8.68.09.09v-.09Zm.09,7.83h-.09v.17h.09Zm.51-1.88h.09v-.25h-.09Zm.26-1h-.09V126h.09Zm.33-8.33-.08.08h.08Zm0,7.23c-.08,0-.08.08-.08.17h.08Zm.09-16.08v.34a.48.48,0,0,0,.09-.34Zm.09,15.48-.09.09h.09Zm.08-.59.17.08a.31.31,0,0,0-.08-.25Zm.34-.77h-.08v.26h.08Zm.51-1.61h-.08c0,.08,0,.08.08.08Zm.17-7.32-.08.09h.08Zm0,6.81c-.08,0-.08,0-.08.08Zm.43-10.72h-.17v.25Zm-.09,9.7.09-.09h-.09Zm.17-.51c.09,0,.09-.09.09-.18h-.09Zm.17-.6H274v-.17h-.09Zm1-2.72h-.08v.17h.08Zm.09-.43h.08v-.08H275Zm.17-.68.08.09v-.09Zm1.19-3.31v-.09l-.09.09Z"/><path class="cls-2" d="M307.71,89.49c-1.95,2.38-9.52,3.06-12.58,3.57-3.07,10-4.85,20.25-6.55,30.54a108.29,108.29,0,0,0-1.53,16.58,29,29,0,0,0,.85,6.64,2,2,0,0,1,.08.68c0,.76-1.1,1-1.7,1-.25,0-.34-.26-.42-.43l-.52.77c-1-.51-2.12-.77-3.14-1.28-3.15-1.61-3.15-7.4-3.15-10.37a178.75,178.75,0,0,1,2.55-26.88c.34-2,.51-4.17.94-6.21.42-2.38,1-4.76,1.36-7.14a13.11,13.11,0,0,0,.34-1.7c0-.43-.77-.43-1-.43-.85,0-1.79.09-2.64.09l.09-.09A6.09,6.09,0,0,1,278.11,93l.09-.51-.77-.43c.18-.85.35-1.1,1.2-1.36,1.87-.51,3.82-.68,5.69-1.1a35.74,35.74,0,0,0,4.77-7.91,56.91,56.91,0,0,1,3.48-6.38c.34-.6.68-1.11,1.45-1.11l1,.51-.6,1.36a17.3,17.3,0,0,0,1.28-1.53l.34.51.68-.08-.42,1.19.68-.6.93.34v.85l.68-.17c.51.43,1.36.85,1.36,1.62,0,.34-3.06,9.1-3.06,9.1a13,13,0,0,0,1.87-.17,19.09,19.09,0,0,1,4.43-.34c1.78,0,2.21.34,3.31,1.79C306.52,89.24,307.2,89.41,307.71,89.49Zm-26.28,38.87h-.08v1.11h.08Zm.34-3.57h-.08v1h.08Zm1.19-8.42-.25-.09-.85,7.06H282C282.28,121.05,282.62,118.66,283,116.37Zm4.09-21.94c-1.19,1.87-4,18-4,20.75v.42C284.24,108.54,285.26,101.4,287.05,94.43Zm-3.83,37.5v-.85h-.09v.85Zm0-2.12h.08v-.17h-.08Zm.34-3.41h-.09l-.08,1.62h.08Zm.25-2h-.08c0,.43-.09.77-.09,1.19h.17Zm.17-1.44v.42c.77-4.93,1.45-9.86,2.38-14.71s2.05-9.78,3.07-14.72C287.9,95.87,284,119.43,284,122.92Zm8.17-29.35-.77.09a169.6,169.6,0,0,0-4.59,21.43c-1.1,7.32-2.3,14.8-2.3,22.2a30,30,0,0,0,.17,3.91A226.14,226.14,0,0,1,292.15,93.57Zm-6.38-4.42v.17l.34-.51A.37.37,0,0,0,285.77,89.15Zm.51,43.46h-.09v.26h.09Zm.25-2.29v-.43a.69.69,0,0,0-.08.43Zm.35-2.81v-.25h-.09v.25Zm.25-2.3h-.08v.34h.08Zm.26-1.78h-.09v.34Zm.25-1.28a.52.52,0,0,1-.08-.34h-.09a.48.48,0,0,0,.09.34Zm.17-2h-.08v.6h.08Zm.26-1.45H288V119h.09Zm.08-15v.26h.09v-.26Zm.17,14V117h-.08v.68Zm.09-15.14a.73.73,0,0,1-.09.43h.09l.08-.43Zm.17,13.7v-.51h-.17v.51Zm0-14.38h.08v-.17Zm.25,13a.83.83,0,0,0-.08-.43h-.09v.43Zm0-14.29v.25h.09v-.25Zm.17,12.84v-.34h-.08v.34Zm.26-1v-.59h-.09l-.08.59Zm.08-13.69-.17.25h.17Zm-.08-11.23.08-.08C289.26,87.37,289.26,87.37,289.26,87.45Zm.25,23.65a1.2,1.2,0,0,0-.08-.52h-.09v.52Zm-.08-13.19.08.09.17-.34Zm.25,11.4h-.08V110h.08Zm.26-.51v-.6h-.09l-.08.51C289.85,108.8,289.85,108.8,289.94,108.8Zm-.09-12.16.17-.43-.17-.08Zm.26,10.46H290v.59h.09Zm0-11.74v.17c.08-.08.08-.08.08-.17Zm.25,11.14V106h-.08v.51Zm.26-1.53-.17.43.17.08Zm.34-1a.37.37,0,0,0-.34.34c0,.17.08.26.08.43Zm-.09-.51c0,.17.09.26.09.43l.25-.85C291,103.1,290.87,103.19,290.87,103.44Zm.26-15.14a4.4,4.4,0,0,0,.93-2.47A4.45,4.45,0,0,0,291.13,88.3Zm.08,14.63c0-.25.09-.51.09-.77h-.17A2.49,2.49,0,0,0,291.21,102.93Zm.26-1.28v-.42c-.09.17-.17.25-.17.42Zm.08-.93a.31.31,0,0,0-.08.25l.08-.08Zm.17-.6.09-.25A.29.29,0,0,0,291.72,100.12Zm.26-1-.09.09c0,.25-.08.42-.08.68l.17-.68Zm.42-1.36A1.58,1.58,0,0,0,292,99.1,7.61,7.61,0,0,0,292.4,97.74Zm-.25-12.08c-.09.09-.09.09-.09.17C292.06,85.75,292.15,85.75,292.15,85.66Zm.68,10.55a1.37,1.37,0,0,0-.43.94,1,1,0,0,0,.09.51A8.45,8.45,0,0,1,292.83,96.21Zm-.43,1.53h.09v-.08Zm.17-18.2c.09-.08.09-.08.09-.17C292.66,79.46,292.57,79.46,292.57,79.54Zm.26-.76-.17.42A.67.67,0,0,0,292.83,78.78Zm.17-.34-.17.34A.73.73,0,0,0,293,78.44Zm-.17,17.43.25-.59v-.34A3.57,3.57,0,0,0,292.83,95.87Zm.68-2.13V93.4l-.34.94A.58.58,0,0,0,293.51,93.74Zm3.06-13.18a10.4,10.4,0,0,1-.85,1.11A41.4,41.4,0,0,0,293.34,88h.17c.43,0,.6-.34.68-.68C295,85.07,295.72,82.86,296.57,80.56Zm-2.72-3.32a.64.64,0,0,0-.17.34A.64.64,0,0,0,293.85,77.24Zm-.09,4.09.26-.17h-.26Zm.52-5a4.83,4.83,0,0,0-.43.93l.43-.76Z"/><path class="cls-2" d="M320.64,117.39c-1.87,4.42-6,12-9.78,15-1.87-.68-3.23-.85-3.23-3.23,0-4.6,1-9.1,2-13.61l-2.9,3c-1.78,1.88-4.25,5.45-7.23,5.45-2.12,0-5.27-2-5.27-4.34,0-5,5.36-14.12,9.44-17,1.7-1.19,3.83-2.38,6-2.38a8.09,8.09,0,0,1,5.44,2.64,1,1,0,0,1,.34.68,1.28,1.28,0,0,1-.17.51l-2.47-.68c-6.12,2.12-9.18,9-11.65,14.54l.17.17,1.36-1,8.17-7.32c1.53-1.36,1.78-3.14,3.74-3.91l.08.85-.25.09c-.17.34,0,.25-.34.59l.25-.08.09-.43.25-.17a.59.59,0,0,1,.51-.34c.17,0,.34.17.43.26l-.09.59.34-.17v-.08l.43.17c-.68,2.12-1.45,4.17-2.21,6.21l-.09.08c.09,0,.09,0,.09-.08s.25-.17.25-.34c.85-1.87,1.53-3.83,2.47-5.62.42.09.76.34.76.77a5.58,5.58,0,0,1-.42,1.7c-1.11,3.06-4.85,13.61-4.85,16.33a14.39,14.39,0,0,0,2.81-2.81h.17c-1.11,1.62-2.64,3-3.4,4.77h-.09v.08c.09,0,.09,0,.09-.08a63.24,63.24,0,0,0,4.25-5.11c.34-.42.68-1.1,1.1-1.53l.43-.42c-1.79,3.06-4.59,5.86-6.12,9l2.72-3.15-.77,1.45.6-.42.08.34a5.57,5.57,0,0,1,.77-1.37h.08v-.08l-.08.08h-.17a2.62,2.62,0,0,1,.93-1.53v.34l.17-.34.26-.17.17-.34c.17-.68.85-1.19,1.1-1.87a10.76,10.76,0,0,1,.77-1.27H318l.17-.34h-.09l.51-.94.09.34a4.27,4.27,0,0,1,.51-1.1h-.09l.26-.17a3.24,3.24,0,0,0,.34-.77v.08A13,13,0,0,1,320.64,117.39ZM297,114.67c0,.08-.09.17-.09.25H297Zm.51-1c1.1-1.87,2.12-3.92,3.31-5.7.26-.34,1-1.28,1-1.7l-.17.34a34.24,34.24,0,0,0-4.43,7.4.65.65,0,0,0-.17.42l.17-.42C297.34,113.9,297.51,113.82,297.51,113.65Zm.85,1.7.25-.6c-.17.09-.17.43-.34.6Zm.17,4a.48.48,0,0,0-.09.34h.09Zm7.06-12.93c-2.21,1.36-5.45,7.4-6.3,9.86-.34.94-.51,2-.76,2.9a1.47,1.47,0,0,0,.34-.6A43.63,43.63,0,0,1,305.59,106.42ZM298.87,114c.85-1.62,1.87-3.06,2.81-4.6v-.17A23.92,23.92,0,0,0,298.87,114Zm3.23-8,.26-.17h-.09Zm.43,2h.17V108C302.61,108,302.61,108,302.53,108Zm.42-.59H303v-.09C303,107.35,303,107.35,303,107.44Zm8.51,15.14h.08v-.17h-.08Zm.34,8a.18.18,0,0,0-.17.17Zm0-9.69.08.17v-.26Zm.68,8.84-.6.77C312.14,130.23,312.48,130.15,312.48,129.72Zm-.26-10.29h.09V119A.71.71,0,0,0,312.22,119.43Zm.09-.77.17-.34h-.09Zm.17-.42a3.17,3.17,0,0,0,.59-1.7A13.7,13.7,0,0,0,312.48,118.24Zm.17,11.74c-.09,0-.09.08-.17.08C312.56,130.06,312.65,130.06,312.65,130Zm.34-.6c0-.17.08-.34.08-.51l-.51.77Zm0-20.24.68-1.28A3,3,0,0,0,313,109.14Zm.17,20.07-.09.09C313.16,129.3,313.16,129.3,313.16,129.21Zm.08-13.35a.31.31,0,0,0-.08.25Zm.26,13.27c-.09,0-.09.08-.17.08h.17Zm0-14.12c-.09.08-.09.25-.09.42l.09-.17Zm.59,13.35H314l-.26.17h.09Zm.26-19.39a.9.9,0,0,1,.08.25l.34-.68C314.52,108.63,314.35,108.71,314.35,109Zm.42-.51a.75.75,0,0,0,.09-.43A.75.75,0,0,0,314.77,108.46Zm.85,17.35a.52.52,0,0,0-.08.34A.55.55,0,0,0,315.62,125.81Z"/><path class="cls-2" d="M336.38,67.12c2.47,0,5.19,3.92,5.19,6.3,0,3.48-3.92,15.31-5.11,19.3-.68,2.3-1.53,4.6-2.21,6.89L329.66,116a63.37,63.37,0,0,0-2.72,16.84,18.75,18.75,0,0,0,.76,4.76,21.25,21.25,0,0,1,.77,3.15c-.26,0-.51.08-.77.08-2.29,0-4.16-1.61-5.44-3.4-1.53-2.12-1.7-4.93-1.7-7.48,0-10.55,5.61-30.54,8.93-41,1-3.15,6.89-17.94,6.89-19.65a3.18,3.18,0,0,0-.6-1.7A.74.74,0,0,1,336.38,67.12Zm-10.72,58.69c.43-2.64.85-5.19,1.53-7.83,1-4.08,2-8.16,3.06-12.24,1.62-5.7,3.66-11.31,5-17.1-1.1,1.7-5.44,17.69-6.38,20.92a99.31,99.31,0,0,0-3.65,18A13.22,13.22,0,0,0,325.66,125.81Zm10.29-39a1,1,0,0,0-.42.94Zm.26-.77-.17-.08a2.74,2.74,0,0,0-.09.85Zm.42-1.44-.08-.09v.09Z"/><path class="cls-2" d="M222.94,129.1c0,4.9.82,10,1.15,14.87-9.15-2.62-12.26-11.6-12.26-20.26,0-18.95,2.94-37.74,7.19-56.2,2.29-10,4.74-20.59,9.15-29.74a4.93,4.93,0,0,0,.82-2,1.5,1.5,0,0,0-.49-1.14l.65-1a6.52,6.52,0,0,1-1.31-1.63c.66-1.8,2.46-1.47,3.93-1.47,3.75,2.45,6.86,7.67,6.86,12.25,0,4.9-6,27.94-7.84,33.49h.81a10.26,10.26,0,0,0,4.41-1,136.33,136.33,0,0,0,31.7-16.66c4.08-2.78,13.07-9.48,14.87-13.89a12.14,12.14,0,0,0,.81-4.09c0-3.26-1.79-5.55-4.25-7.51C271.3,27.15,259.38,25,249.57,25,234.71,25,219,29.28,207.1,38.1c-5.4,3.92-11.6,10.13-11.6,17.32a12.67,12.67,0,0,0,.16,2.45,27.81,27.81,0,0,0,11.6,4.74c.82,2.12,1.31,4.24,3.43,5.55a11,11,0,0,1-3.27.33c-6.86,0-12.41-2.62-15.85-8.66a23.39,23.39,0,0,1-3.43-11.44c0-5.23,2.62-10,6.21-13.72C207.42,21,225.72,15.55,244.18,15.55c20.1,0,41.34,5.89,45.58,28.43a19.32,19.32,0,0,1,.33,3.11c0,13.72-20.91,27.12-31.69,32.83-7,3.76-14.87,7.19-22.71,8.66a65.89,65.89,0,0,1-8,.82C224.9,102.31,222.94,115.87,222.94,129.1ZM222.45,26c-4.57,1.8-9.47,3.43-13.56,6.21-2.28,1.63-4.24,3.59-6.53,5.39A2.67,2.67,0,0,0,203.5,37a103.48,103.48,0,0,1,16.67-9.32A26.94,26.94,0,0,0,223.11,26ZM206.12,28.3c-.49,0-1,0-1,.65a1.71,1.71,0,0,1,.16.49Zm6.69-.49c-.16,0-.16,0-.32.16C212.65,28,212.65,27.81,212.81,27.81Zm2-1,.49-.17-.49-.32Zm0,4.74h.17v-.33Zm5.4-9.81V21.6c-.17,0-.17,0-.33.16Zm1.3-.49h-.16c0,.17,0,.17.16.17ZM227,25.19V24.7l-.66.49Zm9.31,59.64c-.16-.17-.16-.17-.33-.17v.17Zm1.14-.66v.33l.66-.33Zm2-6.7-.16.17c.16,0,.33,0,.33-.17Zm9.48,2.13c-2.12,1-7.52,2.78-9,4.25,2.29-.82,4.58-1.31,6.7-2.29a105.44,105.44,0,0,0,28.59-17.65,3,3,0,0,0,1.15-.81,6.49,6.49,0,0,0-1.8,1.14A131.54,131.54,0,0,1,248.92,79.6Zm-8.33-2.29c0-.33,0-.33-.33-.33Zm2.77-1.14a15.36,15.36,0,0,1,4.58-2c4.08-2.13,8.33-4.09,12.09-6.87a48.28,48.28,0,0,0-7.52,4.09A40.72,40.72,0,0,1,244,75.51Zm5.56.65c2.78-1,11.44-5.23,13.4-7.19-1.47.66-2.62,1.8-4.09,2.45Zm5.39,3.1.17.17v-.17Zm7.52-4.24-.17.32h.17Zm1.79-1v.16l.17-.16Zm1.31-1-.16.16h.16Z"/><rect class="cls-3" x="1.5" y="1.5" width="164.15" height="164.53" rx="16.1" ry="16.1"/><path class="cls-4" d="M149.56,166H17.6a16.06,16.06,0,0,1-12.41-5.84C2.89,157.41,156.92,2.84,159.68,5.09a16,16,0,0,1,6,12.51V149.93A16.09,16.09,0,0,1,149.56,166Z"/><rect class="cls-5" x="1.5" y="1.5" width="164.15" height="164.53" rx="16.1" ry="16.1"/><path class="cls-6" d="M130.31,148.9c0,2.48-20.77,4.49-46.39,4.49s-46.4-2-46.4-4.49,20.77-4.49,46.4-4.49S130.31,146.42,130.31,148.9Z"/><path class="cls-7" d="M136.65,69.18a52.74,52.74,0,1,0-105.47,0c0,33.49,52.74,75,52.74,75S136.65,102.67,136.65,69.18Z"/><path class="cls-8" d="M123.09,33.87A52.74,52.74,0,0,0,31.18,69.18c0,14.55,10,30.62,21.22,44.14a239.41,239.41,0,0,0,31.52,30.87s52.73-41.52,52.73-75A52.55,52.55,0,0,0,123.09,33.87Zm-39.17,105a237.27,237.27,0,0,1-28.34-28.17l-.39-.48c-13-15.72-19.87-29.9-19.87-41A48.59,48.59,0,0,1,120,36.65l.29.34a48.49,48.49,0,0,1,12.21,32.19c0,12.63-8.72,28.95-25.22,47.2A247.17,247.17,0,0,1,83.92,138.84Z"/><path class="cls-2" d="M81.62,98.45a4.06,4.06,0,0,0,5.28,0c1.78-1.53,4.76-4.25,9.71-9,11.64-11.27,10.91-16.11,11-16.64A13,13,0,0,0,95,58.43a13.5,13.5,0,0,0-10.71,5.5,13.5,13.5,0,0,0-10.71-5.5A13,13,0,0,0,61,72.76c0,.53-.67,5.37,11,16.64C76.86,94.2,79.84,96.92,81.62,98.45Z"/><path class="cls-2" d="M62.64,51.77c2.34,4.42,1.45,9.49-2,11.33s-8.15-.27-10.5-4.69-1.45-9.49,2-11.32S60.29,47.35,62.64,51.77Z"/><path class="cls-2" d="M81,42.46c1,6.23-2.19,11.9-7,12.65s-9.59-3.68-10.56-9.91,2.19-11.9,7-12.66S80.05,36.23,81,42.46Z"/><path class="cls-2" d="M87.5,42.46c1-6.23,5.7-10.67,10.56-9.92s8,6.43,7.06,12.66-5.7,10.67-10.57,9.91S86.53,48.69,87.5,42.46Z"/><path class="cls-2" d="M118.38,58.41c-2.35,4.42-7,6.52-10.5,4.68s-4.34-6.89-2-11.31,7-6.52,10.49-4.69S120.73,54,118.38,58.41Z"/></g></g></g></svg>